<svg width="390" height="481" viewBox="0 0 390 481" fill="none" xmlns="http://www.w3.org/2000/svg">
<rect x="4" y="4" width="382" height="473" rx="46" fill="url(#paint0_linear_160_166897)" stroke="#000D62" stroke-width="8"/>
<mask id="path-2-outside-1_160_166897" maskUnits="userSpaceOnUse" x="62" y="93" width="264" height="65" fill="black">
<rect fill="white" x="62" y="93" width="264" height="65"/>
<path d="M118.107 98.25V121.78H68.7073V98.25H118.107ZM107.187 113.135V106.895H79.6273V113.135H107.187ZM65.3273 125.03H121.487V134.065H98.9323V141.605H87.8823V134.065H65.3273V125.03ZM79.7573 137.315V144.66H118.887V153.76H68.5773V137.315H79.7573ZM172.182 98.25H182.452V153.76H172.182V98.25ZM158.207 118.01V98.51H168.347V152.785H158.207V145.765L150.017 150.315L142.867 137.315C139.617 146.22 134.352 150.9 127.202 151.16V140.435C132.792 139.655 136.237 128.02 136.432 109.495H128.307V99.55H154.632V109.495H146.832C146.767 114.435 146.507 118.985 146.052 123.08L158.207 144.14V128.345H151.122V118.01H158.207Z"/>
<path d="M243.564 100.265V107.87H206.514V100.265H219.319V96.56H230.629V100.265H243.564ZM265.274 110.405V120.61H258.904V136.47H247.919V98.25H258.904V110.405H265.274ZM244.734 134.26C241.289 135.755 235.699 136.275 230.174 136.275H206.644V128.28H219.644V126.135C213.014 125.225 208.594 122.43 208.594 117.815C208.594 112.095 215.549 109.105 225.104 109.105C234.659 109.105 241.614 112.095 241.614 117.815C241.614 122.43 237.129 125.225 230.434 126.2V128.28C235.569 128.28 241.289 127.76 244.734 126.265V134.26ZM218.799 117.815C218.799 118.92 221.269 119.44 225.104 119.44C228.939 119.44 231.409 118.92 231.409 117.815C231.409 116.71 228.939 116.19 225.104 116.19C221.269 116.19 218.799 116.71 218.799 117.815ZM209.634 146.545V138.42H258.904V154.41H247.854V146.545H209.634ZM322.208 98.25V139.33H311.223V98.25H322.208ZM286.588 98.315C297.443 98.315 304.853 104.945 304.853 114.955C304.853 125.03 297.443 131.595 286.588 131.595C275.733 131.595 268.323 125.03 268.323 114.955C268.323 104.945 275.733 98.315 286.588 98.315ZM286.588 107.48C282.363 107.48 279.243 110.145 279.243 114.955C279.243 119.765 282.363 122.43 286.588 122.43C290.813 122.43 293.933 119.765 293.933 114.955C293.933 110.145 290.813 107.48 286.588 107.48ZM284.378 134.325V143.88H322.988V153.76H273.198V134.325H284.378Z"/>
</mask>
<path d="M118.107 98.25V121.78H68.7073V98.25H118.107ZM107.187 113.135V106.895H79.6273V113.135H107.187ZM65.3273 125.03H121.487V134.065H98.9323V141.605H87.8823V134.065H65.3273V125.03ZM79.7573 137.315V144.66H118.887V153.76H68.5773V137.315H79.7573ZM172.182 98.25H182.452V153.76H172.182V98.25ZM158.207 118.01V98.51H168.347V152.785H158.207V145.765L150.017 150.315L142.867 137.315C139.617 146.22 134.352 150.9 127.202 151.16V140.435C132.792 139.655 136.237 128.02 136.432 109.495H128.307V99.55H154.632V109.495H146.832C146.767 114.435 146.507 118.985 146.052 123.08L158.207 144.14V128.345H151.122V118.01H158.207Z" fill="url(#paint1_linear_160_166897)"/>
<path d="M243.564 100.265V107.87H206.514V100.265H219.319V96.56H230.629V100.265H243.564ZM265.274 110.405V120.61H258.904V136.47H247.919V98.25H258.904V110.405H265.274ZM244.734 134.26C241.289 135.755 235.699 136.275 230.174 136.275H206.644V128.28H219.644V126.135C213.014 125.225 208.594 122.43 208.594 117.815C208.594 112.095 215.549 109.105 225.104 109.105C234.659 109.105 241.614 112.095 241.614 117.815C241.614 122.43 237.129 125.225 230.434 126.2V128.28C235.569 128.28 241.289 127.76 244.734 126.265V134.26ZM218.799 117.815C218.799 118.92 221.269 119.44 225.104 119.44C228.939 119.44 231.409 118.92 231.409 117.815C231.409 116.71 228.939 116.19 225.104 116.19C221.269 116.19 218.799 116.71 218.799 117.815ZM209.634 146.545V138.42H258.904V154.41H247.854V146.545H209.634ZM322.208 98.25V139.33H311.223V98.25H322.208ZM286.588 98.315C297.443 98.315 304.853 104.945 304.853 114.955C304.853 125.03 297.443 131.595 286.588 131.595C275.733 131.595 268.323 125.03 268.323 114.955C268.323 104.945 275.733 98.315 286.588 98.315ZM286.588 107.48C282.363 107.48 279.243 110.145 279.243 114.955C279.243 119.765 282.363 122.43 286.588 122.43C290.813 122.43 293.933 119.765 293.933 114.955C293.933 110.145 290.813 107.48 286.588 107.48ZM284.378 134.325V143.88H322.988V153.76H273.198V134.325H284.378Z" fill="url(#paint2_linear_160_166897)"/>
<path d="M118.107 98.25H121.107V95.25H118.107V98.25ZM118.107 121.78V124.78H121.107V121.78H118.107ZM68.7073 121.78H65.7073V124.78H68.7073V121.78ZM68.7073 98.25V95.25H65.7073V98.25H68.7073ZM107.187 113.135V116.135H110.187V113.135H107.187ZM107.187 106.895H110.187V103.895H107.187V106.895ZM79.6273 106.895V103.895H76.6273V106.895H79.6273ZM79.6273 113.135H76.6273V116.135H79.6273V113.135ZM65.3273 125.03V122.03H62.3273V125.03H65.3273ZM121.487 125.03H124.487V122.03H121.487V125.03ZM121.487 134.065V137.065H124.487V134.065H121.487ZM98.9323 134.065V131.065H95.9323V134.065H98.9323ZM98.9323 141.605V144.605H101.932V141.605H98.9323ZM87.8823 141.605H84.8823V144.605H87.8823V141.605ZM87.8823 134.065H90.8823V131.065H87.8823V134.065ZM65.3273 134.065H62.3273V137.065H65.3273V134.065ZM79.7573 137.315H82.7573V134.315H79.7573V137.315ZM79.7573 144.66H76.7573V147.66H79.7573V144.66ZM118.887 144.66H121.887V141.66H118.887V144.66ZM118.887 153.76V156.76H121.887V153.76H118.887ZM68.5773 153.76H65.5773V156.76H68.5773V153.76ZM68.5773 137.315V134.315H65.5773V137.315H68.5773ZM115.107 98.25V121.78H121.107V98.25H115.107ZM118.107 118.78H68.7073V124.78H118.107V118.78ZM71.7073 121.78V98.25H65.7073V121.78H71.7073ZM68.7073 101.25H118.107V95.25H68.7073V101.25ZM110.187 113.135V106.895H104.187V113.135H110.187ZM107.187 103.895H79.6273V109.895H107.187V103.895ZM76.6273 106.895V113.135H82.6273V106.895H76.6273ZM79.6273 116.135H107.187V110.135H79.6273V116.135ZM65.3273 128.03H121.487V122.03H65.3273V128.03ZM118.487 125.03V134.065H124.487V125.03H118.487ZM121.487 131.065H98.9323V137.065H121.487V131.065ZM95.9323 134.065V141.605H101.932V134.065H95.9323ZM98.9323 138.605H87.8823V144.605H98.9323V138.605ZM90.8823 141.605V134.065H84.8823V141.605H90.8823ZM87.8823 131.065H65.3273V137.065H87.8823V131.065ZM68.3273 134.065V125.03H62.3273V134.065H68.3273ZM76.7573 137.315V144.66H82.7573V137.315H76.7573ZM79.7573 147.66H118.887V141.66H79.7573V147.66ZM115.887 144.66V153.76H121.887V144.66H115.887ZM118.887 150.76H68.5773V156.76H118.887V150.76ZM71.5773 153.76V137.315H65.5773V153.76H71.5773ZM68.5773 140.315H79.7573V134.315H68.5773V140.315ZM172.182 98.25V95.25H169.182V98.25H172.182ZM182.452 98.25H185.452V95.25H182.452V98.25ZM182.452 153.76V156.76H185.452V153.76H182.452ZM172.182 153.76H169.182V156.76H172.182V153.76ZM158.207 118.01V121.01H161.207V118.01H158.207ZM158.207 98.51V95.51H155.207V98.51H158.207ZM168.347 98.51H171.347V95.51H168.347V98.51ZM168.347 152.785V155.785H171.347V152.785H168.347ZM158.207 152.785H155.207V155.785H158.207V152.785ZM158.207 145.765H161.207V140.666L156.75 143.143L158.207 145.765ZM150.017 150.315L147.388 151.761L148.84 154.401L151.474 152.937L150.017 150.315ZM142.867 137.315L145.495 135.869L142.313 130.083L140.049 136.286L142.867 137.315ZM127.202 151.16H124.202V154.271L127.311 154.158L127.202 151.16ZM127.202 140.435L126.787 137.464L124.202 137.825V140.435H127.202ZM136.432 109.495L139.432 109.527L139.463 106.495H136.432V109.495ZM128.307 109.495H125.307V112.495H128.307V109.495ZM128.307 99.55V96.55H125.307V99.55H128.307ZM154.632 99.55H157.632V96.55H154.632V99.55ZM154.632 109.495V112.495H157.632V109.495H154.632ZM146.832 109.495V106.495H143.871L143.832 109.456L146.832 109.495ZM146.052 123.08L143.07 122.749L142.961 123.727L143.453 124.58L146.052 123.08ZM158.207 144.14L155.608 145.64L161.207 155.339V144.14H158.207ZM158.207 128.345H161.207V125.345H158.207V128.345ZM151.122 128.345H148.122V131.345H151.122V128.345ZM151.122 118.01V115.01H148.122V118.01H151.122ZM172.182 101.25H182.452V95.25H172.182V101.25ZM179.452 98.25V153.76H185.452V98.25H179.452ZM182.452 150.76H172.182V156.76H182.452V150.76ZM175.182 153.76V98.25H169.182V153.76H175.182ZM161.207 118.01V98.51H155.207V118.01H161.207ZM158.207 101.51H168.347V95.51H158.207V101.51ZM165.347 98.51V152.785H171.347V98.51H165.347ZM168.347 149.785H158.207V155.785H168.347V149.785ZM161.207 152.785V145.765H155.207V152.785H161.207ZM156.75 143.143L148.56 147.693L151.474 152.937L159.664 148.387L156.75 143.143ZM152.645 148.869L145.495 135.869L140.238 138.761L147.388 151.761L152.645 148.869ZM140.049 136.286C138.536 140.43 136.642 143.345 134.508 145.233C132.422 147.08 129.986 148.057 127.093 148.162L127.311 154.158C131.568 154.003 135.339 152.51 138.485 149.726C141.584 146.983 143.947 143.105 145.685 138.344L140.049 136.286ZM130.202 151.16V140.435H124.202V151.16H130.202ZM127.616 143.406C130.061 143.065 131.966 141.564 133.379 139.671C134.781 137.793 135.869 135.319 136.715 132.475C138.412 126.775 139.333 118.922 139.432 109.527L133.432 109.463C133.336 118.593 132.436 125.82 130.965 130.763C130.227 133.242 129.393 134.981 128.571 136.082C127.759 137.169 127.137 137.415 126.787 137.464L127.616 143.406ZM136.432 106.495H128.307V112.495H136.432V106.495ZM131.307 109.495V99.55H125.307V109.495H131.307ZM128.307 102.55H154.632V96.55H128.307V102.55ZM151.632 99.55V109.495H157.632V99.55H151.632ZM154.632 106.495H146.832V112.495H154.632V106.495ZM143.832 109.456C143.768 114.317 143.512 118.768 143.07 122.749L149.033 123.411C149.501 119.202 149.765 114.553 149.831 109.534L143.832 109.456ZM143.453 124.58L155.608 145.64L160.805 142.64L148.65 121.58L143.453 124.58ZM161.207 144.14V128.345H155.207V144.14H161.207ZM158.207 125.345H151.122V131.345H158.207V125.345ZM154.122 128.345V118.01H148.122V128.345H154.122ZM151.122 121.01H158.207V115.01H151.122V121.01ZM243.564 100.265H246.564V97.265H243.564V100.265ZM243.564 107.87V110.87H246.564V107.87H243.564ZM206.514 107.87H203.514V110.87H206.514V107.87ZM206.514 100.265V97.265H203.514V100.265H206.514ZM219.319 100.265V103.265H222.319V100.265H219.319ZM219.319 96.56V93.56H216.319V96.56H219.319ZM230.629 96.56H233.629V93.56H230.629V96.56ZM230.629 100.265H227.629V103.265H230.629V100.265ZM265.274 110.405H268.274V107.405H265.274V110.405ZM265.274 120.61V123.61H268.274V120.61H265.274ZM258.904 120.61V117.61H255.904V120.61H258.904ZM258.904 136.47V139.47H261.904V136.47H258.904ZM247.919 136.47H244.919V139.47H247.919V136.47ZM247.919 98.25V95.25H244.919V98.25H247.919ZM258.904 98.25H261.904V95.25H258.904V98.25ZM258.904 110.405H255.904V113.405H258.904V110.405ZM244.734 134.26L245.928 137.012L247.734 136.228V134.26H244.734ZM206.644 136.275H203.644V139.275H206.644V136.275ZM206.644 128.28V125.28H203.644V128.28H206.644ZM219.644 128.28V131.28H222.644V128.28H219.644ZM219.644 126.135H222.644V123.519L220.052 123.163L219.644 126.135ZM230.434 126.2L230.002 123.231L227.434 123.605V126.2H230.434ZM230.434 128.28H227.434V131.28H230.434V128.28ZM244.734 126.265H247.734V121.693L243.54 123.513L244.734 126.265ZM209.634 146.545H206.634V149.545H209.634V146.545ZM209.634 138.42V135.42H206.634V138.42H209.634ZM258.904 138.42H261.904V135.42H258.904V138.42ZM258.904 154.41V157.41H261.904V154.41H258.904ZM247.854 154.41H244.854V157.41H247.854V154.41ZM247.854 146.545H250.854V143.545H247.854V146.545ZM240.564 100.265V107.87H246.564V100.265H240.564ZM243.564 104.87H206.514V110.87H243.564V104.87ZM209.514 107.87V100.265H203.514V107.87H209.514ZM206.514 103.265H219.319V97.265H206.514V103.265ZM222.319 100.265V96.56H216.319V100.265H222.319ZM219.319 99.56H230.629V93.56H219.319V99.56ZM227.629 96.56V100.265H233.629V96.56H227.629ZM230.629 103.265H243.564V97.265H230.629V103.265ZM262.274 110.405V120.61H268.274V110.405H262.274ZM265.274 117.61H258.904V123.61H265.274V117.61ZM255.904 120.61V136.47H261.904V120.61H255.904ZM258.904 133.47H247.919V139.47H258.904V133.47ZM250.919 136.47V98.25H244.919V136.47H250.919ZM247.919 101.25H258.904V95.25H247.919V101.25ZM255.904 98.25V110.405H261.904V98.25H255.904ZM258.904 113.405H265.274V107.405H258.904V113.405ZM243.54 131.508C240.712 132.735 235.675 133.275 230.174 133.275V139.275C235.723 139.275 241.865 138.775 245.928 137.012L243.54 131.508ZM230.174 133.275H206.644V139.275H230.174V133.275ZM209.644 136.275V128.28H203.644V136.275H209.644ZM206.644 131.28H219.644V125.28H206.644V131.28ZM222.644 128.28V126.135H216.644V128.28H222.644ZM220.052 123.163C217.001 122.744 214.772 121.926 213.383 120.928C212.096 120.003 211.594 118.999 211.594 117.815H205.594C205.594 121.246 207.302 123.947 209.882 125.801C212.361 127.582 215.657 128.616 219.236 129.107L220.052 123.163ZM211.594 117.815C211.594 116.453 212.321 115.138 214.604 114C216.963 112.824 220.573 112.105 225.104 112.105V106.105C220.08 106.105 215.435 106.881 211.927 108.63C208.344 110.417 205.594 113.457 205.594 117.815H211.594ZM225.104 112.105C229.635 112.105 233.245 112.824 235.603 114C237.887 115.138 238.614 116.453 238.614 117.815H244.614C244.614 113.457 241.863 110.417 238.281 108.63C234.773 106.881 230.128 106.105 225.104 106.105V112.105ZM238.614 117.815C238.614 118.979 238.114 119.987 236.792 120.931C235.37 121.945 233.097 122.781 230.002 123.231L230.866 129.169C234.466 128.644 237.783 127.595 240.277 125.814C242.871 123.963 244.614 121.266 244.614 117.815H238.614ZM227.434 126.2V128.28H233.434V126.2H227.434ZM230.434 131.28C235.597 131.28 241.867 130.779 245.928 129.017L243.54 123.513C240.71 124.741 235.54 125.28 230.434 125.28V131.28ZM241.734 126.265V134.26H247.734V126.265H241.734ZM215.799 117.815C215.799 119.399 216.744 120.446 217.524 120.992C218.256 121.505 219.098 121.784 219.801 121.956C221.246 122.309 223.105 122.44 225.104 122.44V116.44C223.268 116.44 221.974 116.311 221.226 116.128C220.832 116.031 220.816 115.973 220.966 116.078C221.162 116.216 221.799 116.784 221.799 117.815H215.799ZM225.104 122.44C227.103 122.44 228.961 122.309 230.407 121.956C231.11 121.784 231.952 121.505 232.684 120.992C233.464 120.446 234.409 119.399 234.409 117.815H228.409C228.409 116.784 229.045 116.216 229.242 116.078C229.392 115.973 229.376 116.031 228.982 116.128C228.234 116.311 226.94 116.44 225.104 116.44V122.44ZM234.409 117.815C234.409 116.231 233.464 115.184 232.684 114.638C231.952 114.125 231.11 113.846 230.407 113.674C228.961 113.321 227.103 113.19 225.104 113.19V119.19C226.94 119.19 228.234 119.319 228.982 119.502C229.376 119.599 229.392 119.657 229.242 119.552C229.045 119.414 228.409 118.846 228.409 117.815H234.409ZM225.104 113.19C223.105 113.19 221.246 113.321 219.801 113.674C219.098 113.846 218.256 114.125 217.524 114.638C216.744 115.184 215.799 116.231 215.799 117.815H221.799C221.799 118.846 221.162 119.414 220.966 119.552C220.816 119.657 220.832 119.599 221.226 119.502C221.974 119.319 223.268 119.19 225.104 119.19V113.19ZM212.634 146.545V138.42H206.634V146.545H212.634ZM209.634 141.42H258.904V135.42H209.634V141.42ZM255.904 138.42V154.41H261.904V138.42H255.904ZM258.904 151.41H247.854V157.41H258.904V151.41ZM250.854 154.41V146.545H244.854V154.41H250.854ZM247.854 143.545H209.634V149.545H247.854V143.545ZM322.208 98.25H325.208V95.25H322.208V98.25ZM322.208 139.33V142.33H325.208V139.33H322.208ZM311.223 139.33H308.223V142.33H311.223V139.33ZM311.223 98.25V95.25H308.223V98.25H311.223ZM284.378 134.325H287.378V131.325H284.378V134.325ZM284.378 143.88H281.378V146.88H284.378V143.88ZM322.988 143.88H325.988V140.88H322.988V143.88ZM322.988 153.76V156.76H325.988V153.76H322.988ZM273.198 153.76H270.198V156.76H273.198V153.76ZM273.198 134.325V131.325H270.198V134.325H273.198ZM319.208 98.25V139.33H325.208V98.25H319.208ZM322.208 136.33H311.223V142.33H322.208V136.33ZM314.223 139.33V98.25H308.223V139.33H314.223ZM311.223 101.25H322.208V95.25H311.223V101.25ZM286.588 101.315C291.41 101.315 295.214 102.782 297.777 105.104C300.312 107.402 301.853 110.732 301.853 114.955H307.853C307.853 109.168 305.689 104.178 301.806 100.658C297.95 97.1632 292.621 95.315 286.588 95.315V101.315ZM301.853 114.955C301.853 119.215 300.309 122.541 297.78 124.827C295.221 127.14 291.418 128.595 286.588 128.595V134.595C292.613 134.595 297.943 132.768 301.803 129.279C305.692 125.764 307.853 120.77 307.853 114.955H301.853ZM286.588 128.595C281.758 128.595 277.955 127.14 275.397 124.827C272.867 122.541 271.323 119.215 271.323 114.955H265.323C265.323 120.77 267.484 125.764 271.374 129.279C275.234 132.768 280.563 134.595 286.588 134.595V128.595ZM271.323 114.955C271.323 110.732 272.864 107.402 275.4 105.104C277.962 102.782 281.766 101.315 286.588 101.315V95.315C280.555 95.315 275.227 97.1632 271.371 100.658C267.487 104.178 265.323 109.168 265.323 114.955H271.323ZM286.588 104.48C283.847 104.48 281.211 105.353 279.244 107.259C277.259 109.183 276.243 111.879 276.243 114.955H282.243C282.243 113.221 282.788 112.18 283.419 111.568C284.068 110.939 285.105 110.48 286.588 110.48V104.48ZM276.243 114.955C276.243 118.031 277.259 120.727 279.244 122.651C281.211 124.557 283.847 125.43 286.588 125.43V119.43C285.105 119.43 284.068 118.971 283.419 118.342C282.788 117.73 282.243 116.689 282.243 114.955H276.243ZM286.588 125.43C289.33 125.43 291.966 124.557 293.933 122.651C295.918 120.727 296.933 118.031 296.933 114.955H290.933C290.933 116.689 290.389 117.73 289.758 118.342C289.109 118.971 288.072 119.43 286.588 119.43V125.43ZM296.933 114.955C296.933 111.879 295.918 109.183 293.933 107.259C291.966 105.353 289.33 104.48 286.588 104.48V110.48C288.072 110.48 289.109 110.939 289.758 111.568C290.389 112.18 290.933 113.221 290.933 114.955H296.933ZM281.378 134.325V143.88H287.378V134.325H281.378ZM284.378 146.88H322.988V140.88H284.378V146.88ZM319.988 143.88V153.76H325.988V143.88H319.988ZM322.988 150.76H273.198V156.76H322.988V150.76ZM276.198 153.76V134.325H270.198V153.76H276.198ZM273.198 137.325H284.378V131.325H273.198V137.325Z" fill="white" mask="url(#path-2-outside-1_160_166897)"/>
<path d="M211.488 378.267C211.488 387.409 204.076 390.683 194.934 390.683C185.792 390.683 178.38 387.409 178.38 378.267L182.518 341.02C182.518 331.883 185.792 332.743 194.934 332.743C204.076 332.743 207.35 331.883 207.35 341.02L211.488 378.267Z" fill="#662113"/>
<path d="M250.41 354.667C221.596 329.983 209.926 294.64 194.933 294.64C179.94 294.64 168.271 329.987 139.457 354.667C127.348 365.041 133.116 371.043 149.716 369.839C164.512 368.772 178.352 365.417 194.933 365.417C211.515 365.417 225.359 368.772 240.146 369.839C256.75 371.043 262.514 365.037 250.41 354.667Z" fill="#5C913B"/>
<path d="M241.053 344.884C218.909 324.581 206.466 295.501 194.934 295.501C183.411 295.501 170.963 324.581 148.819 344.884C131.221 361.017 171.879 364.638 194.934 344.884C217.98 364.643 258.646 361.017 241.053 344.884Z" fill="#3E721D"/>
<path d="M241.053 328.435C218.909 309.469 206.466 282.303 194.934 282.303C183.411 282.303 170.963 309.469 148.819 328.435C131.221 343.506 171.879 346.889 194.934 328.435C217.98 346.894 258.646 343.506 241.053 328.435Z" fill="#5C913B"/>
<path d="M230.935 314.967C213.653 300.157 203.939 278.947 194.934 278.947C185.938 278.947 176.219 300.152 158.932 314.967C145.198 326.732 176.933 329.374 194.934 314.967C212.925 329.369 244.674 326.732 230.935 314.967Z" fill="#3E721D"/>
<path d="M230.935 302.643C213.653 287.833 203.939 266.627 194.934 266.627C185.938 266.627 176.219 287.833 158.932 302.643C145.198 314.413 176.933 317.05 194.934 302.643C212.925 317.05 244.674 314.413 230.935 302.643Z" fill="#5C913B"/>
<path d="M223.986 291.697C210.036 279.748 202.194 262.631 194.929 262.631C187.668 262.631 179.826 279.748 165.872 291.697C154.784 301.196 180.403 303.325 194.929 291.697C209.46 303.325 235.078 301.196 223.986 291.697Z" fill="#3E721D"/>
<path d="M223.986 282.422C210.036 270.473 202.194 253.356 194.929 253.356C187.668 253.356 179.826 270.473 165.872 282.422C154.784 291.921 180.403 294.05 194.929 282.422C209.46 294.05 235.078 291.921 223.986 282.422Z" fill="#5C913B"/>
<path d="M217.04 268.765C206.428 259.673 200.463 246.649 194.933 246.649C189.402 246.649 183.437 259.673 172.821 268.765C164.384 275.994 183.877 277.615 194.933 268.765C205.984 277.615 225.482 275.994 217.04 268.765Z" fill="#3E721D"/>
<path d="M217.04 263.826C206.428 254.729 200.463 241.705 194.933 241.705C189.402 241.705 183.437 254.729 172.821 263.826C164.384 271.054 183.877 272.675 194.933 263.826C205.984 272.67 225.482 271.05 217.04 263.826Z" fill="#5C913B"/>
<path d="M185.906 289.966C189.699 289.966 192.773 286.892 192.773 283.099C192.773 279.307 189.699 276.232 185.906 276.232C182.114 276.232 179.039 279.307 179.039 283.099C179.039 286.892 182.114 289.966 185.906 289.966Z" fill="#FFCC4D"/>
<path d="M201.929 351.577C206.985 351.577 211.085 347.478 211.085 342.421C211.085 337.364 206.985 333.265 201.929 333.265C196.872 333.265 192.772 337.364 192.772 342.421C192.772 347.478 196.872 351.577 201.929 351.577Z" fill="#FFCC4D"/>
<path d="M213.374 310.375C219.695 310.375 224.819 305.251 224.819 298.93C224.819 292.609 219.695 287.485 213.374 287.485C207.053 287.485 201.929 292.609 201.929 298.93C201.929 305.251 207.053 310.375 213.374 310.375Z" fill="#DD2E44"/>
<path d="M156.148 356.155C161.205 356.155 165.304 352.056 165.304 346.999C165.304 341.942 161.205 337.843 156.148 337.843C151.091 337.843 146.992 341.942 146.992 346.999C146.992 352.056 151.091 356.155 156.148 356.155Z" fill="#DD2E44"/>
<path d="M174.461 324.109C179.517 324.109 183.617 320.01 183.617 314.953C183.617 309.896 179.517 305.797 174.461 305.797C169.404 305.797 165.305 309.896 165.305 314.953C165.305 320.01 169.404 324.109 174.461 324.109Z" fill="#A6D388"/>
<path d="M229.397 342.421C234.454 342.421 238.553 338.322 238.553 333.265C238.553 328.208 234.454 324.109 229.397 324.109C224.341 324.109 220.241 328.208 220.241 333.265C220.241 338.322 224.341 342.421 229.397 342.421Z" fill="#A6D388"/>
<path d="M199.086 235.657C199.741 236.916 201.43 238.17 202.826 238.445L209.139 239.677C210.536 239.951 210.865 241.004 209.867 242.021L205.367 246.617C204.374 247.633 203.696 249.625 203.875 251.035L204.653 257.416C204.827 258.831 203.925 259.467 202.648 258.836L196.893 255.974C195.616 255.343 193.514 255.315 192.223 255.915L186.391 258.634C185.1 259.229 184.212 258.57 184.423 257.16L185.361 250.797C185.567 249.391 184.944 247.386 183.978 246.342L179.588 241.641C178.618 240.601 178.97 239.548 180.376 239.315L186.716 238.244C188.122 238.01 189.834 236.797 190.525 235.552L193.643 229.925C194.334 228.68 195.446 228.694 196.101 229.953L199.086 235.657Z" fill="#FFAC33"/>
<g clip-path="url(#clip0_160_166897)">
<path d="M59.3528 79L30 54.048L36.4934 49.9236L59.3528 79Z" fill="white"/>
<path d="M62.0003 77.7173C61.9743 72.8034 48.5566 49.6631 48.5566 49.6631L55.5017 49L62.0003 77.7173Z" fill="white"/>
</g>
<defs>
<linearGradient id="paint0_linear_160_166897" x1="195" y1="0" x2="195" y2="481" gradientUnits="userSpaceOnUse">
<stop stop-color="#00236F"/>
<stop offset="0.665" stop-color="#001239"/>
</linearGradient>
<linearGradient id="paint1_linear_160_166897" x1="195" y1="95" x2="195" y2="160" gradientUnits="userSpaceOnUse">
<stop stop-color="#ED1C24"/>
<stop offset="1" stop-color="#871015"/>
</linearGradient>
<linearGradient id="paint2_linear_160_166897" x1="195" y1="95" x2="195" y2="160" gradientUnits="userSpaceOnUse">
<stop stop-color="#00A14B"/>
<stop offset="1" stop-color="#003B1B"/>
</linearGradient>
<clipPath id="clip0_160_166897">
<rect width="32" height="30" fill="white" transform="translate(30 49)"/>
</clipPath>
</defs>
</svg>
