<svg width="280" height="378" viewBox="0 0 280 378" fill="none" xmlns="http://www.w3.org/2000/svg">
<rect x="4.85059" y="4" width="270.598" height="369.481" rx="46" fill="url(#paint0_linear_182_16153)" stroke="white" stroke-width="8"/>
<path d="M136.04 94.1483C136.04 86.4793 138.132 82.2188 143.787 77.9583C148.358 74.4724 150.837 72.1485 150.837 68.4302C150.837 64.557 148.048 62.1556 143.167 62.1556C137.977 62.1556 135.188 65.7965 135.188 69.7471H121.707C121.707 58.5923 130.539 50.2262 143.09 50.2262C156.493 50.2262 164.085 57.8951 164.085 68.4302C164.085 74.1626 161.296 78.7329 156.26 82.6061C150.605 87.0216 148.823 89.8103 148.823 94.1483H136.04ZM142.857 116.148C138.132 116.148 134.645 112.74 134.645 108.014C134.645 103.289 138.132 99.8031 142.857 99.8031C147.583 99.8031 151.07 103.289 151.07 108.014C151.07 112.74 147.583 116.148 142.857 116.148Z" fill="white" fill-opacity="0.5"/>
<path d="M163.796 116.197C165.547 111.113 167.901 108.764 172.607 107.225C176.42 105.954 178.587 104.977 179.436 102.512C180.321 99.9437 179.029 97.7175 175.807 96.6076C172.381 95.4274 169.709 97.207 168.806 99.8262L159.909 96.761C162.456 89.3655 170.197 85.8272 178.481 88.681C187.327 91.7286 190.587 98.5394 188.181 105.524C186.871 109.324 183.987 111.72 179.778 113.143C175.037 114.784 173.224 116.228 172.233 119.104L163.796 116.197ZM163.271 132.333C160.152 131.259 158.629 128.206 159.708 125.073C160.787 121.941 163.885 120.422 167.004 121.497C170.123 122.571 171.628 125.675 170.549 128.808C169.47 131.941 166.39 133.408 163.271 132.333Z" fill="white" fill-opacity="0.5"/>
<path d="M115.442 111.567C114.198 107.857 114.514 105.459 116.546 102.485C118.182 100.061 118.999 98.5364 118.396 96.7381C117.767 94.8647 116.035 94.1537 113.685 94.9419C111.185 95.7802 110.433 97.9915 111.074 99.9023L104.583 102.079C102.773 96.6842 105.669 91.2115 111.712 89.1846C118.166 87.0201 123.066 89.5031 124.775 94.5986C125.705 97.3711 125.103 100.032 123.306 102.719C121.3 105.768 120.894 107.404 121.598 109.502L115.442 111.567ZM122.294 121.106C120.018 121.869 117.787 120.784 117.02 118.498C116.254 116.213 117.367 113.964 119.642 113.201C121.918 112.437 124.162 113.56 124.929 115.846C125.695 118.131 124.569 120.343 122.294 121.106Z" fill="white" fill-opacity="0.5"/>
<path d="M170.854 191.377C175.128 199.581 186.155 207.754 195.269 209.544L236.48 217.569C245.594 219.358 247.746 226.219 241.231 232.842L211.855 262.791C205.37 269.414 200.947 282.39 202.113 291.578L207.193 333.161C208.329 342.379 202.442 346.525 194.104 342.409L156.54 323.765C148.202 319.648 134.485 319.469 126.058 323.377L87.9856 341.096C79.5583 344.974 73.7608 340.678 75.1355 331.491L81.2617 290.026C82.6065 280.869 78.5423 267.803 72.2367 261.002L43.5779 230.366C37.2424 223.594 39.5435 216.733 48.7179 215.212L90.1074 208.232C99.2818 206.71 110.458 198.805 114.971 190.691L135.322 154.03C139.835 145.916 147.096 146.006 151.37 154.209L170.854 191.377Z" fill="white"/>
<path d="M165.19 203.292C168.609 209.828 177.432 216.341 184.725 217.767L217.697 224.16C224.989 225.587 226.711 231.053 221.499 236.33L197.995 260.194C192.806 265.47 189.268 275.81 190.2 283.131L194.265 316.264C195.173 323.609 190.463 326.913 183.792 323.632L153.737 308.777C147.066 305.497 136.091 305.354 129.349 308.468L98.8873 322.587C92.1446 325.677 87.5061 322.254 88.6059 314.933L93.5075 281.895C94.5835 274.598 91.3317 264.187 86.2866 258.768L63.3568 234.357C58.2878 228.962 60.1289 223.495 67.4693 222.283L100.585 216.721C107.925 215.509 116.868 209.21 120.478 202.745L136.761 173.533C140.371 167.068 146.182 167.139 149.601 173.676L165.19 203.292Z" fill="#FFFF00"/>
<defs>
<linearGradient id="paint0_linear_182_16153" x1="140.15" y1="0" x2="140.15" y2="377.481" gradientUnits="userSpaceOnUse">
<stop stop-color="#00236F"/>
<stop offset="0.665" stop-color="#001239"/>
</linearGradient>
</defs>
</svg>
