<svg width="266" height="148" viewBox="0 0 266 148" fill="none" xmlns="http://www.w3.org/2000/svg">
<path d="M378.832 78.8179C374.048 80.5405 367.275 80.3394 362.425 80.9785C353.952 82.0913 345.436 83.2036 336.918 84.8115C329.257 86.2524 321.589 88.3833 314.064 88.4716C311.877 88.4969 309.635 88.3284 308.078 87.2987C303.235 84.0912 309.955 76.8982 313.656 73.3827C318.9 68.4017 324.145 63.4207 329.396 58.436C334.829 53.2774 340.263 48.1187 345.686 42.9575C348.038 40.7262 350.693 37.3707 353.486 35.5504C344.642 41.3174 335.795 47.0944 326.951 52.8614C320.707 56.9375 307.647 68.514 300.079 68.5857C293.511 68.6493 292.407 61.3184 293.364 56.4213C294.758 49.326 296.078 42.2324 297.439 35.1392C298.944 27.2757 300.449 19.4122 301.954 11.5488C302.605 8.12886 304.289 3.70144 304.083 0.406333C299.189 8.61456 294.298 16.829 289.404 25.0373C285.594 31.4382 281.774 37.8366 277.964 44.2375C275.429 48.4851 273.707 52.834 270.874 57.0301C263.519 67.9269 256.241 53.8313 254.54 50.0981C251.858 44.2187 249.185 38.3419 246.503 32.4625C242.748 24.2229 239.182 15.864 235.233 7.72147C232.594 16.7512 229.952 25.7747 227.314 34.8045C224.213 45.4028 222.99 56.8347 218.282 67.3195C211.158 83.1965 197.083 52.1957 194.972 48.5932C190.73 41.3508 186.487 34.1084 182.245 26.8659C181.041 35.9008 179.837 44.9357 178.633 53.9706C177.227 64.5471 176.954 75.0127 175.197 85.6189C174.937 87.1772 174.608 88.8016 173.532 90.2522C168.206 97.4661 157.186 83.4278 155.331 81.2329C148.365 72.9993 142.115 64.5303 134.757 56.5429C133.553 55.2306 130.539 53.2874 130.109 51.4964C132.358 60.995 134.611 70.4998 136.86 79.9984C138.444 86.6888 140.023 93.3731 141.613 100.06C142.17 102.396 142.894 104.718 143.282 107.111C143.824 110.451 139.896 115.121 135.604 115.426C133.69 115.559 132.007 114.988 130.444 114.363C121.709 110.857 114.081 105.766 105.727 101.752C101.246 99.6052 96.7679 97.4484 92.2959 95.2879C88.6436 93.5263 81.1944 91.7285 78.8887 88.7929C88.3215 100.822 97.7641 112.854 108.182 124.164C110.119 126.27 112.111 128.384 113.107 131.057C114.1 133.724 113.944 137.088 111.812 139.978C106.4 147.318 94.6347 143.712 88.3162 143.487C80.9078 143.231 73.502 142.965 66.0936 142.708C59.3565 142.469 52.6132 142.234 45.8798 142.001C43.2642 141.909 39.4111 142.391 37.0596 141.693C45.1848 144.116 53.3064 146.532 61.4316 148.956C70.2534 151.582 79.1627 154.014 88.2958 156.257C90.8167 156.873 93.5354 157.641 94.4762 159.719C96.4511 164.062 90.5461 170.702 85.4338 172.994C82.8995 174.127 80.3046 175.128 77.7525 176.188C69.5896 179.588 61.4292 182.979 53.2663 186.379C37.1259 193.097 20.9793 199.818 4.83525 206.529C3.3145 207.177 1.79892 207.806 0.277096 208.438C16.6979 205.214 33.1289 201.608 49.5507 198.401C60.0918 196.345 83.954 188.118 88.9319 197.658C90.8677 201.363 86.9362 207.299 84.3856 211.163C73.3264 227.955 62.2735 244.743 51.2144 261.536C52.1583 259.317 57.6514 255.446 59.6498 253.555C68.9598 244.753 78.1875 235.882 87.5318 227.109C93.4477 221.559 105.984 205.517 112.458 214.625C113.783 216.486 114.051 218.916 114.301 221.273C116.307 240.474 118.319 259.672 120.335 278.876C127.003 257.975 133.655 237.076 140.307 216.176C140.821 214.553 142.512 213.152 144.373 212.841C144.648 212.796 144.92 212.746 145.202 212.698C146.674 212.439 147.991 212.872 148.629 213.847L182.113 265.105C181.788 252.788 180.995 240.587 180.688 228.259C180.539 222.102 180.456 215.93 180.699 209.685C181.012 201.616 189.21 197.089 196.597 199.61C216.923 206.539 235.368 218.061 250.876 230.416C242.322 216.156 233.799 201.877 225.144 187.676C220.279 179.685 231.888 175.806 239.819 176.669C262.063 179.1 282.829 185.051 305.084 187.485C300.332 186.962 294.143 179.227 290.897 176.759C285.684 172.789 280.436 168.848 275.183 164.91C271.939 162.474 264.875 159.462 264.247 155.159C263.513 150.206 273.245 146.096 277.389 145.61C302.55 142.658 327.714 139.654 352.882 136.673C352.882 136.673 299.701 118.702 299.691 118.699C289.775 115.349 322.916 102.867 325.081 101.934C342.813 94.3173 360.822 85.3163 378.832 78.8179Z" fill="#00A14B"/>
</svg>
